HIERARCHY
ROOT Hips
{
	OFFSET 0.00000 0.00000 0.00000
	CHANNELS 6 Xposition Yposition Zposition Yrotation Zrotation Xrotation 
	JOINT Lumbar
	{
		OFFSET 0 0 0
		CHANNELS 3 Zrotation Xrotation Yrotation
		JOINT Neck
		{
			OFFSET 0.00 0.2701 0.00
			CHANNELS 3 Zrotation Xrotation Yrotation
			End Site
			{
				OFFSET 0.00 0.1379 0.00
			}
		}
		JOINT RightShoulder
		{
			OFFSET 0.0119 0.2289 0.1181
			CHANNELS 3 Zrotation Xrotation Yrotation
			JOINT RightElbow
			{
				OFFSET 0.00 -0.1475 0.00
				CHANNELS 2 Zrotation Yrotation
				JOINT RightWrist
				{
					OFFSET 0.00 -0.1605 0.00
					CHANNELS 2 Zrotation Xrotation
					End Site
					{
						OFFSET 0.0040 -0.1068 0.0006
					}
				}
			}
		}
		JOINT LeftShoulder
		{
			OFFSET 0.0119 0.2289 -0.1181
			CHANNELS 3 Zrotation Xrotation Yrotation
			JOINT LeftElbow
			{
				OFFSET 0.00 -0.1475 0.00
				CHANNELS 2 Zrotation Yrotation
				JOINT LeftWrist
				{
					OFFSET 0.00 -0.1605 0.00
					CHANNELS 2 Zrotation Xrotation
					End Site
					{
						OFFSET 0.0040 -0.1068 -0.0006
					}
				}
			}
		}
	}
	JOINT RightHip
	{
		OFFSET 0.0316 -0.0424 0.0458
		CHANNELS 3 Zrotation Xrotation Yrotation
		JOINT RightKnee
		{
			OFFSET 0.00 -0.2438 0.00
			CHANNELS 1 Zrotation
			JOINT RightAnkle
			{
				OFFSET 0.00 -0.2449 0.00
				CHANNELS 3 Zrotation Xrotation Yrotation
				End Site
				{
					OFFSET 0.1237 -0.0542 0.0051
				}
			}
		}
	}
	JOINT LeftHip
	{
		OFFSET 0.0316 -0.0424 -0.0458
		CHANNELS 3 Zrotation Xrotation Yrotation
		JOINT LeftKnee
		{
			OFFSET 0.00 -0.2438 0.00
			CHANNELS 1 Zrotation
			JOINT LeftAnkle
			{
				OFFSET 0.00 -0.2449 0.00
				CHANNELS 3 Zrotation Xrotation Yrotation
				End Site
				{
					OFFSET 0.1237 -0.0542 -0.0051
				}
			}
		}
	}
}
MOTION
Frames: 34
Frame Time: 0.02
-0.00013 -2e-05 3e-05 22.74932 -29.47911 -7.54555 48.76224 2.86448 -2.3915 -13.60804 -1.73 -1.50414 67.00859 -99.63651 55.63237 5.79214 91.73739 7.15844 0.43994 25.70908 100.03788 -55.63331 7.39989 -89.88288 7.17552 0.00571 44.15237 -3.85475 -10.85836 -21.68557 -6.7149 -2.11069 -3.27997 49.06873 9.36292 4.49224 -26.97558 -6.96788 1.78936 3.11727
-0.00012 -1e-05 1e-05 22.7363 -29.47371 -7.5428 48.7655 2.86528 -2.38433 -13.61603 -1.72686 -1.50413 67.19477 -99.62355 55.63237 5.79194 91.75031 7.15394 0.46405 25.70775 100.04495 -55.63331 7.40187 -89.9143 7.17327 0.00735 44.14912 -3.85219 -10.82897 -21.68688 -6.71502 -2.11316 -3.28041 49.05763 9.35311 4.46483 -26.97409 -6.96702 1.79117 3.11919
-0.00011 -1e-05 -2e-05 22.72333 -29.46832 -7.54006 48.76874 2.86609 -2.37718 -13.62399 -1.72374 -1.50412 67.38042 -99.61064 55.63237 5.79174 91.7632 7.14944 0.48808 25.70651 100.05199 -55.63331 7.40385 -89.94563 7.171 0.00896 44.14588 -3.84964 -10.79965 -21.68818 -6.71513 -2.11561 -3.28086 49.04656 9.34336 4.43761 -26.9726 -6.96616 1.79298 3.1211
-0.0001 -1e-05 -4e-05 22.71035 -29.46294 -7.53732 48.77198 2.86689 -2.37004 -13.63195 -1.72061 -1.50411 67.56602 -99.59772 55.63238 5.79154 91.77608 7.14496 0.51211 25.7052 100.05904 -55.63331 7.40582 -89.97696 7.16875 0.01058 44.14264 -3.84709 -10.77035 -21.68949 -6.71524 -2.11807 -3.28131 49.0355 9.33358 4.41031 -26.9711 -6.96529 1.79478 3.12301
-9e-05 -1e-05 -6e-05 22.69732 -29.45754 -7.53458 48.77524 2.86768 -2.36285 -13.63994 -1.71748 -1.5041 67.75217 -99.58473 55.63238 5.79134 91.789 7.14047 0.53622 25.70378 100.06613 -55.63331 7.40779 -90.00837 7.16652 0.01224 44.1394 -3.84452 -10.74098 -21.69079 -6.71535 -2.12053 -3.28175 49.0244 9.32375 4.38273 -26.96961 -6.96443 1.79661 3.12494
-8e-05 -1e-05 -9e-05 22.68449 -29.45218 -7.53185 48.77844 2.86852 -2.3558 -13.64784 -1.71437 -1.50409 67.93674 -99.572 55.63238 5.79114 91.80182 7.13596 0.56007 25.70292 100.07308 -55.63331 7.40977 -90.03953 7.16419 0.01374 44.13617 -3.842 -10.71177 -21.6921 -6.71546 -2.12298 -3.28219 49.01339 9.31416 4.35629 -26.96813 -6.96358 1.79837 3.12681
-7e-05 -0 -0.00011 22.67127 -29.44674 -7.52909 48.78175 2.86925 -2.34849 -13.65591 -1.71121 -1.50408 68.12421 -99.55878 55.63238 5.79094 91.81482 7.13149 0.58442 25.70091 100.08029 -55.63331 7.41173 -90.07116 7.16206 0.01557 44.1329 -3.8394 -10.68227 -21.69339 -6.71557 -2.12545 -3.28265 49.00221 9.30408 4.32764 -26.96662 -6.9627 1.80025 3.12878
-6e-05 -0 -0.00014 22.65839 -29.44138 -7.52637 48.78496 2.87009 -2.34142 -13.66383 -1.70809 -1.50408 68.30918 -99.54598 55.63239 5.79074 91.82766 7.12698 0.60832 25.70002 100.08727 -55.63331 7.41372 -90.10237 7.15974 0.01708 44.12968 -3.83685 -10.65306 -21.6947 -6.71568 -2.1279 -3.28309 48.9912 9.29446 4.30092 -26.96514 -6.96184 1.80203 3.13067
-5e-05 -0 -0.00016 22.64597 -29.43611 -7.52366 48.78806 2.87106 -2.33464 -13.67153 -1.70506 -1.50407 68.49045 -99.5338 55.63239 5.79055 91.84027 7.12243 0.63163 25.70027 100.09392 -55.63332 7.41572 -90.13305 7.15722 0.01825 44.12649 -3.83443 -10.62409 -21.69605 -6.71579 -2.13033 -3.28352 48.98035 9.28541 4.27699 -26.96368 -6.96102 1.80366 3.13243
-3e-05 0 -0.00018 22.63104 -29.4303 -7.52075 48.79185 2.87126 -2.32618 -13.6804 -1.70164 -1.50404 68.69108 -99.51838 55.63239 5.79033 91.85411 7.11817 0.65822 25.69327 100.10233 -55.6333 7.41756 -90.16672 7.15593 0.02152 44.12301 -3.83149 -10.59339 -21.69721 -6.71591 -2.13289 -3.28402 48.96843 9.27309 4.23833 -26.96206 -6.96002 1.80609 3.13484
-3e-05 0 -0.00021 22.62134 -29.42565 -7.51835 48.79413 2.87308 -2.32127 -13.68686 -1.69894 -1.50407 68.85209 -99.50957 55.63239 5.79016 91.86543 7.11324 0.67795 25.70201 100.10712 -55.63333 7.4198 -90.19411 7.152 0.02028 44.12024 -3.82952 -10.56654 -21.69876 -6.716 -2.13516 -3.28437 48.95888 9.26765 4.22987 -26.96079 -6.95939 1.80685 3.13592
-4e-05 0 -0.00023 22.6268 -29.42408 -7.51686 48.79257 2.87942 -2.32626 -13.68622 -1.69918 -1.50425 68.8947 -99.52076 55.63239 5.79014 91.86899 7.10682 0.67835 25.75049 100.10099 -55.63345 7.4228 -90.20381 7.14105 0.00713 44.11871 -3.83134 -10.54926 -21.70135 -6.71605 -2.13666 -3.28437 48.95506 9.28163 4.31257 -26.96035 -6.95974 1.80275 3.13307
-5e-05 0 -0.00025 22.63739 -29.42371 -7.51599 48.78941 2.88734 -2.33481 -13.68323 -1.69997 -1.5045 68.90021 -99.53819 55.63239 5.79017 91.87018 7.09968 0.67202 25.81524 100.0914 -55.6336 7.4263 -90.2073 7.12732 -0.01061 44.11804 -3.83392 -10.53632 -21.70435 -6.71607 -2.13783 -3.28421 48.95381 9.30251 4.42413 -26.96027 -6.96046 1.79703 3.12893
-7e-05 0 -0.00027 22.64506 -29.42284 -7.51517 48.7868 2.89452 -2.34161 -13.68162 -1.69983 -1.50473 68.92794 -99.55158 55.63239 5.79018 91.87294 7.09261 0.66905 25.87504 100.08402 -55.63374 7.42972 -90.21394 7.11487 -0.0266 44.11741 -3.83542 -10.52166 -21.70716 -6.7161 -2.13916 -3.28412 48.95185 9.3198 4.517 -26.96013 -6.96102 1.79225 3.12554
-8e-05 0 -0.0003 22.65511 -29.42174 -7.51291 48.78505 2.90192 -2.34892 -13.67871 -1.70247 -1.50492 68.92937 -99.57022 55.63239 5.7902 91.87352 7.08654 0.66461 25.92532 100.07392 -55.63389 7.43233 -90.21917 7.10274 -0.04134 44.1149 -3.84005 -10.50471 -21.70994 -6.71614 -2.14056 -3.28409 48.9478 9.33871 4.63319 -26.9596 -6.96153 1.78661 3.12146
-9e-05 0 -0.0003 22.66158 -29.42145 -7.51386 48.781 2.90908 -2.35606 -13.67793 -1.69956 -1.5052 68.98128 -99.57919 55.63239 5.79021 91.87822 7.07831 0.66186 25.99835 100.06866 -55.63401 7.43699 -90.22589 7.08877 -0.05959 44.11661 -3.83834 -10.49509 -21.71294 -6.71616 -2.1416 -3.28384 48.94891 9.35626 4.70797 -26.95993 -6.96226 1.78236 3.11849
-0.00011 1e-05 -0.0002 22.65553 -29.42271 -7.52277 48.77212 2.91647 -2.36159 -13.68374 -1.68022 -1.50573 69.14267 -99.56164 55.63239 5.79018 91.89356 7.06335 0.66337 26.13811 100.07785 -55.63404 7.44508 -90.2381 7.07447 -0.08793 44.12874 -3.81891 -10.49157 -21.71583 -6.7162 -2.14271 -3.28338 48.96192 9.36524 4.65847 -26.9628 -6.96323 1.78252 3.119
-0.00013 1e-05 -6e-05 22.64602 -29.42482 -7.535 48.76075 2.92332 -2.36688 -13.69171 -1.6555 -1.50635 69.363 -99.53382 55.63239 5.79015 91.91335 7.04641 0.66707 26.29864 100.09199 -55.63402 7.45568 -90.25203 7.05746 -0.11938 44.14527 -3.79305 -10.49758 -21.71904 -6.71621 -2.14329 -3.28262 48.98038 9.3732 4.56673 -26.96648 -6.96447 1.78409 3.12063
-0.00015 2e-05 8e-05 22.63893 -29.42679 -7.54617 48.74983 2.92959 -2.37246 -13.69861 -1.6338 -1.50693 69.58244 -99.50956 55.6324 5.7901 91.93204 7.03102 0.67129 26.4446 100.10374 -55.63403 7.46644 -90.26532 7.03927 -0.14841 44.16044 -3.77023 -10.50801 -21.72253 -6.71621 -2.14342 -3.28174 48.99744 9.38369 4.49633 -26.96961 -6.96577 1.78488 3.12166
-0.00016 2e-05 0.00016 22.62821 -29.42775 -7.5555 48.74187 2.93941 -2.3774 -13.7059 -1.60946 -1.50754 69.69297 -99.49015 55.63239 5.7901 91.9469 7.01293 0.66942 26.61315 100.11601 -55.63404 7.47146 -90.27795 7.03198 -0.1818 44.17294 -3.74714 -10.48228 -21.72428 -6.71632 -2.14638 -3.28195 49.0099 9.38572 4.41828 -26.9735 -6.96629 1.7862 3.12306
-0.00018 3e-05 0.00036 22.62444 -29.43099 -7.56938 48.72701 2.94165 -2.38356 -13.71283 -1.58964 -1.5081 70.04268 -99.45816 55.6324 5.79006 91.97065 6.99993 0.68018 26.73892 100.12835 -55.63401 7.48936 -90.29224 7.00035 -0.20684 44.19203 -3.72284 -10.5333 -21.72969 -6.71618 -2.14341 -3.27983 49.03337 9.40501 4.34523 -26.97603 -6.96851 1.7868 3.12396
-0.00021 6e-05 0.00086 22.63828 -29.44031 -7.59561 48.69526 2.92341 -2.3932 -13.71903 -1.58095 -1.50848 71.05626 -99.3935 55.63241 5.78975 92.01896 7.00203 0.73071 26.74587 100.14009 -55.63391 7.53947 -90.31253 6.91075 -0.20776 44.22817 -3.69859 -10.7996 -21.74547 -6.71544 -2.12352 -3.27118 49.08452 9.47241 4.30065 -26.9744 -6.97516 1.78488 3.12313
-0.00024 8e-05 0.00147 22.65964 -29.45185 -7.62615 48.6564 2.89754 -2.404 -13.72471 -1.57748 -1.50882 72.30461 -99.31649 55.63239 5.78966 92.07555 7.00917 0.79278 26.70861 100.15165 -55.63368 7.60312 -90.33412 6.79507 -0.20026 44.2708 -3.67291 -11.14104 -21.76487 -6.71443 -2.09787 -3.26026 49.14676 9.5571 4.26151 -26.97141 -6.98352 1.78224 3.12179
-0.00027 0.00011 0.00205 22.67916 -29.4624 -7.65438 48.61981 2.87486 -2.41431 -13.73006 -1.57339 -1.50919 73.43497 -99.24553 55.63248 5.78934 92.12803 7.01372 0.84622 26.68807 100.16307 -55.63362 7.66211 -90.35395 6.68587 -0.19677 44.3105 -3.64681 -11.44519 -21.78242 -6.71347 -2.0752 -3.25043 49.20488 9.63377 4.21699 -26.96921 -6.9912 1.78006 3.12074
-0.0003 0.00014 0.00257 22.69201 -29.47305 -7.68438 48.58714 2.85309 -2.4247 -13.73765 -1.56179 -1.5095 74.61826 -99.17281 55.63236 5.78873 92.18341 7.0197 0.91455 26.68062 100.17569 -55.63351 7.71417 -90.37879 6.59967 -0.19246 44.35022 -3.62539 -11.76574 -21.80084 -6.71279 -2.05073 -3.24017 49.25951 9.71131 4.18361 -26.96638 -6.9985 1.77737 3.11946
-0.00032 0.00016 0.00322 22.72042 -29.48384 -7.71146 48.54471 2.82789 -2.43487 -13.74073 -1.56705 -1.50993 75.74228 -99.10039 55.63243 5.78981 92.23308 7.02362 0.95392 26.63747 100.18557 -55.63296 7.78475 -90.39346 6.45886 -0.18803 44.39142 -3.59345 -12.06637 -21.81832 -6.71149 -2.02897 -3.23047 49.32372 9.79089 4.12845 -26.96446 -7.00699 1.77557 3.11854
-0.00032 0.00014 0.00415 22.79143 -29.49578 -7.73106 48.47654 2.79294 -2.44727 -13.72867 -1.61845 -1.5107 76.67674 -99.03629 55.63307 5.78716 92.27649 7.02285 0.91584 26.48741 100.18895 -55.6332 7.89578 -90.37928 6.1788 -0.18358 44.43484 -3.5376 -12.32437 -21.83219 -6.70849 -2.01312 -3.22125 49.41391 9.87407 4.01609 -26.96584 -7.01842 1.77615 3.11847
-0.00032 0.00011 0.0052 22.87764 -29.50752 -7.74722 48.39894 2.7552 -2.45892 -13.7126 -1.68647 -1.51159 77.5355 -98.97181 55.63243 5.78817 92.31029 7.01924 0.84701 26.30718 100.18927 -55.63098 8.02655 -90.35448 5.84401 -0.17971 44.47951 -3.4705 -12.55473 -21.84502 -6.7049 -2.00067 -3.21293 49.51291 9.95836 3.8814 -26.96811 -7.03098 1.77767 3.11882
-0.00031 8e-05 0.00619 22.95584 -29.51848 -7.76384 48.326 2.72016 -2.46874 -13.70019 -1.74644 -1.51242 78.41018 -98.90503 55.63419 5.79243 92.34268 7.0157 0.78897 26.1522 100.19039 -55.63074 8.15284 -90.33538 5.53053 -0.1766 44.52382 -3.40523 -12.77653 -21.8584 -6.70165 -1.98873 -3.20529 49.60641 10.04061 3.75387 -26.96968 -7.04299 1.77898 3.11918
-0.00031 6e-05 0.00719 23.03867 -29.5332 -7.78529 48.25109 2.6788 -2.48734 -13.67998 -1.8089 -1.51327 79.37833 -98.84959 55.63426 5.77421 92.40551 7.01823 0.74553 25.94381 100.19433 -55.63369 8.25976 -90.31441 5.23001 -0.16853 44.56766 -3.35308 -13.08688 -21.87153 -6.69813 -1.96827 -3.19314 49.70665 10.12963 3.63762 -26.97241 -7.05521 1.77949 3.11874
-0.0003 3e-05 0.0082 23.11572 -29.54 -7.79578 48.1783 2.65003 -2.48799 -13.67509 -1.86977 -1.5141 80.12168 -98.76895 55.63003 5.80585 92.39532 7.00646 0.6633 25.84405 100.19127 -55.62084 8.41264 -90.29258 4.8913 -0.17149 44.61243 -3.27181 -13.20932 -21.88495 -6.69499 -1.96601 -3.19042 49.79477 10.20497 3.49439 -26.97298 -7.06724 1.78172 3.11996
-0.00026 -1e-05 0.00921 23.17026 -29.52503 -7.77709 48.11233 2.65693 -2.43492 -13.71344 -1.92467 -1.51484 80.31263 -98.62994 55.64358 5.95938 92.25234 6.96505 0.49051 26.01759 100.17276 -55.63804 8.67906 -90.29064 4.44863 -0.20074 44.66166 -3.10565 -12.78399 -21.89887 -6.69341 -2.0167 -3.21529 49.84725 10.23882 3.26568 -26.9672 -7.0784 1.79 3.12659
-0.00022 -5e-05 0.01023 23.21901 -29.50204 -7.74741 48.04913 2.67658 -2.36466 -13.76731 -1.97689 -1.51555 80.25114 -98.4615 55.62309 6.16813 92.02696 6.90857 0.27879 26.30792 100.14654 -55.62564 8.99311 -90.28497 3.97209 -0.24168 44.71132 -2.91192 -12.17661 -21.91322 -6.69216 -2.08498 -3.24929 49.88715 10.25935 3.01345 -26.95927 -7.08934 1.79969 3.13469
-0.00017 -8e-05 0.01124 23.27218 -29.48268 -7.72258 47.9856 2.69027 -2.30504 -13.81415 -2.02875 -1.51629 80.29464 -98.30192 55.62975 6.35838 91.79161 6.85176 0.07792 26.56749 100.12198 -55.57903 9.29017 -90.26758 3.5186 -0.28017 44.75934 -2.73559 -11.67579 -21.92775 -6.69052 -2.1429 -3.27793 49.93273 10.28823 2.783 -26.95242 -7.10043 1.80771 3.14149
